<?xml version="1.0" standalone="no"?>
<!DOCTYPE svg PUBLIC "-//W3C//DTD SVG 20010904//EN"
 "http://www.w3.org/TR/2001/REC-SVG-20010904/DTD/svg10.dtd">
<svg version="1.0" xmlns="http://www.w3.org/2000/svg"
 width="216.000000pt" height="216.000000pt" viewBox="0 0 216.000000 216.000000"
 preserveAspectRatio="xMidYMid meet">
<metadata>
Created by potrace 1.11, written by Peter Selinger 2001-2013
</metadata>
<g transform="translate(0.000000,216.000000) scale(0.100000,-0.100000)"
fill="#000000" stroke="none">
<path d="M1400 1513 c-97 -16 -172 -62 -196 -120 -20 -46 -20 -561 -1 -587 9
-12 31 -20 65 -24 44 -4 54 -1 76 21 l26 26 0 256 0 256 35 15 c20 8 67 14
110 14 43 0 90 -6 110 -14 l35 -15 0 -256 0 -256 25 -24 c29 -30 97 -34 133
-9 22 15 22 17 22 296 0 314 -3 330 -69 373 -20 14 -65 31 -101 39 -60 14
-209 19 -270 9z"/>
<path d="M380 1490 c-19 -19 -20 -33 -20 -344 l0 -325 28 -21 c22 -18 36 -21
76 -17 32 3 54 11 63 23 10 14 13 88 13 345 0 327 0 328 -22 343 -33 23 -113
21 -138 -4z"/>
<path d="M818 1493 c-11 -12 -17 -44 -20 -96 -4 -99 -13 -107 -115 -107 -60 0
-77 -4 -93 -20 -24 -24 -26 -67 -4 -98 13 -19 24 -22 88 -22 58 0 79 -4 97
-19 23 -18 24 -25 27 -170 3 -141 5 -152 25 -166 35 -24 104 -19 132 10 24 23
25 29 25 162 0 154 -16 213 -64 234 l-25 12 29 24 c39 32 53 81 48 170 -3 60
-7 78 -23 89 -28 20 -108 18 -127 -3z"/>
<path d="M1416 1244 c-10 -9 -16 -33 -16 -58 0 -64 19 -76 117 -76 95 0 113
13 113 78 0 62 -16 72 -115 72 -63 0 -88 -4 -99 -16z"/>
</g>
</svg>
